# xmcd
#
# Track frame offsets:
#	150
#	16902
#	33193
#	49704
#	71718
#	85811
#	101959
#	119083
#	136117
#	148116
#	165912
#	184897
#	202452
#	216741
#	232813
#	247359
#	261989
#	276993
#	300780
#	318049
#
# Disc length: 4570 seconds
#
# Revision: 0
# Processed by: cddbd v1.5.1PL0 Copyright (c) Steve Scherf et al.
# Submitted via: EasyCDDAExtractor 4.6.9.1
#
DISCID=2e11d814
DTITLE=Emmylou Harris - The Very Best Of Emmylou
DYEAR=2005
DGENRE=Country
TTITLE0=Love Hurts (w-Gram Parsons
TTITLE1=Boulder To Birmingham
TTITLE2=Making Believe
TTITLE3=Pancho And Lefty
TTITLE4=One Of These Days
TTITLE5=(Lost His Love) On Our Last Date (live)
TTITLE6=Born To Run
TTITLE7=Beneath Still Waters
TTITLE8=If I Could Only Win Your Love
TTITLE9=Together Again
TTITLE10=That Lovin You Feelin Again (w-Roy Orbison)
TTITLE11=To Know Him Is To Love Him (w-Dolly Parton and Linda Ronstadt
TTITLE12=Two More Bottles Of Wine
TTITLE13=Wayfaring Stranger
TTITLE14=Calling My Children Home
TTITLE15=Green Pastures
TTITLE16=Orphan Girl
TTITLE17=Michaelangelo
TTITLE18=Here I Am
TTITLE19=The Connection
EXTD=
EXTT0=
EXTT1=
EXTT2=
EXTT3=
EXTT4=
EXTT5=
EXTT6=
EXTT7=
EXTT8=
EXTT9=
EXTT10=
EXTT11=
EXTT12=
EXTT13=
EXTT14=
EXTT15=
EXTT16=
EXTT17=
EXTT18=
EXTT19=
PLAYORDER=
